<?xml version="1.0" encoding="UTF-8" standalone="no"?>
<!DOCTYPE svg PUBLIC "-//W3C//DTD SVG 1.1//EN"
 "http://www.w3.org/Graphics/SVG/1.1/DTD/svg11.dtd">
<!-- Generated by graphviz version 2.49.3 (20211023.0002)
 -->
<!-- Pages: 1 -->
<svg width="3682pt" height="390pt"
 viewBox="0.00 0.00 3681.94 390.00" xmlns="http://www.w3.org/2000/svg" xmlns:xlink="http://www.w3.org/1999/xlink">
<g id="graph0" class="graph" transform="scale(1 1) rotate(0) translate(4 386)">
<polygon fill="white" stroke="transparent" points="-4,4 -4,-386 3677.94,-386 3677.94,4 -4,4"/>
<g id="clust1" class="cluster">
<title>cluster_card</title>
<polygon fill="none" stroke="blue" points="1387,-8 1387,-299 2801,-299 2801,-8 1387,-8"/>
<text text-anchor="middle" x="2094" y="-283.8" font-family="Times New Roman,serif" font-size="14.00">card.c</text>
</g>
<g id="clust2" class="cluster">
<title>cluster_player</title>
<polygon fill="none" stroke="blue" points="8,-152 8,-299 1379,-299 1379,-152 8,-152"/>
<text text-anchor="middle" x="693.5" y="-283.8" font-family="Times New Roman,serif" font-size="14.00">player.c</text>
</g>
<g id="clust3" class="cluster">
<title>cluster_handutils</title>
<polygon fill="none" stroke="blue" points="2839,-152 2839,-374 3639,-374 3639,-152 2839,-152"/>
<text text-anchor="middle" x="3239" y="-358.8" font-family="Times New Roman,serif" font-size="14.00">handutils.c</text>
</g>
<!-- main -->
<g id="node1" class="node">
<title>main</title>
<ellipse fill="none" stroke="black" cx="2097" cy="-325" rx="27.9" ry="18"/>
<text text-anchor="middle" x="2097" y="-321.3" font-family="Times New Roman,serif" font-size="14.00">main</text>
</g>
<!-- player -->
<g id="node2" class="node">
<title>player</title>
<ellipse fill="none" stroke="black" cx="749" cy="-250" rx="32.49" ry="18"/>
<text text-anchor="middle" x="749" y="-246.3" font-family="Times New Roman,serif" font-size="14.00">player</text>
</g>
<!-- main&#45;&gt;player -->
<g id="edge1" class="edge">
<title>main&#45;&gt;player</title>
<path fill="none" stroke="black" d="M2069.08,-323.43C1973.4,-321.39 1649.89,-313.77 1383,-299 1159.72,-286.64 892.8,-263.79 791.13,-254.78"/>
<polygon fill="black" stroke="black" points="791.24,-251.28 780.97,-253.88 790.62,-258.25 791.24,-251.28"/>
</g>
<!-- card -->
<g id="node3" class="node">
<title>card</title>
<ellipse fill="none" stroke="black" cx="2409" cy="-106" rx="27" ry="18"/>
<text text-anchor="middle" x="2409" y="-102.3" font-family="Times New Roman,serif" font-size="14.00">card</text>
</g>
<!-- main&#45;&gt;card -->
<g id="edge2" class="edge">
<title>main&#45;&gt;card</title>
<path fill="none" stroke="black" d="M2125.1,-323.47C2245.18,-320.54 2713.21,-302.36 2802,-196 2814.53,-180.99 2815.02,-166.59 2802,-152 2778.51,-125.66 2539.31,-112.61 2446,-108.48"/>
<polygon fill="black" stroke="black" points="2446.02,-104.98 2435.88,-108.05 2445.72,-111.98 2446.02,-104.98"/>
</g>
<!-- cardList -->
<g id="node4" class="node">
<title>cardList</title>
<ellipse fill="none" stroke="black" cx="2097" cy="-250" rx="40.09" ry="18"/>
<text text-anchor="middle" x="2097" y="-246.3" font-family="Times New Roman,serif" font-size="14.00">cardList</text>
</g>
<!-- main&#45;&gt;cardList -->
<g id="edge3" class="edge">
<title>main&#45;&gt;cardList</title>
<path fill="none" stroke="black" d="M2097,-306.7C2097,-298.25 2097,-287.87 2097,-278.37"/>
<polygon fill="black" stroke="black" points="2100.5,-278.18 2097,-268.18 2093.5,-278.18 2100.5,-278.18"/>
</g>
<!-- Player_struct -->
<g id="node17" class="node">
<title>Player_struct</title>
<ellipse fill="lightgrey" stroke="black" cx="74" cy="-178" rx="58.49" ry="18"/>
<text text-anchor="middle" x="74" y="-174.3" font-family="Times New Roman,serif" font-size="14.00">Player_struct</text>
</g>
<!-- player&#45;&gt;Player_struct -->
<g id="edge25" class="edge">
<title>player&#45;&gt;Player_struct</title>
<path fill="none" stroke="black" d="M716.47,-248.01C625.14,-244.84 358.82,-232.88 141,-196 135.95,-195.15 130.73,-194.1 125.52,-192.96"/>
<polygon fill="black" stroke="black" points="126.13,-189.51 115.59,-190.66 124.55,-196.33 126.13,-189.51"/>
</g>
<!-- Player_printMoney -->
<g id="node18" class="node">
<title>Player_printMoney</title>
<ellipse fill="lightgrey" stroke="black" cx="230" cy="-178" rx="79.89" ry="18"/>
<text text-anchor="middle" x="230" y="-174.3" font-family="Times New Roman,serif" font-size="14.00">Player_printMoney</text>
</g>
<!-- player&#45;&gt;Player_printMoney -->
<g id="edge27" class="edge">
<title>player&#45;&gt;Player_printMoney</title>
<path fill="none" stroke="black" d="M717.34,-245.82C646.02,-238.51 467.43,-219.3 319,-196 312.21,-194.93 305.15,-193.74 298.11,-192.49"/>
<polygon fill="black" stroke="black" points="298.3,-188.96 287.83,-190.62 297.05,-195.85 298.3,-188.96"/>
</g>
<!-- Player_queryBet -->
<g id="node19" class="node">
<title>Player_queryBet</title>
<ellipse fill="lightgrey" stroke="black" cx="399" cy="-178" rx="70.69" ry="18"/>
<text text-anchor="middle" x="399" y="-174.3" font-family="Times New Roman,serif" font-size="14.00">Player_queryBet</text>
</g>
<!-- player&#45;&gt;Player_queryBet -->
<g id="edge28" class="edge">
<title>player&#45;&gt;Player_queryBet</title>
<path fill="none" stroke="black" d="M718.6,-243.19C668.58,-233.6 565.82,-213.74 479,-196 473.3,-194.83 467.37,-193.61 461.43,-192.36"/>
<polygon fill="black" stroke="black" points="461.98,-188.9 451.48,-190.27 460.54,-195.75 461.98,-188.9"/>
</g>
<!-- Player_printHand -->
<g id="node20" class="node">
<title>Player_printHand</title>
<ellipse fill="lightgrey" stroke="black" cx="562" cy="-178" rx="74.19" ry="18"/>
<text text-anchor="middle" x="562" y="-174.3" font-family="Times New Roman,serif" font-size="14.00">Player_printHand</text>
</g>
<!-- player&#45;&gt;Player_printHand -->
<g id="edge29" class="edge">
<title>player&#45;&gt;Player_printHand</title>
<path fill="none" stroke="black" d="M722.6,-239.12C693.52,-228.23 646.14,-210.5 610.36,-197.1"/>
<polygon fill="black" stroke="black" points="611.19,-193.68 600.6,-193.45 608.74,-200.23 611.19,-193.68"/>
</g>
<!-- Player_printHandLarge -->
<g id="node21" class="node">
<title>Player_printHandLarge</title>
<ellipse fill="lightgrey" stroke="black" cx="749" cy="-178" rx="94.78" ry="18"/>
<text text-anchor="middle" x="749" y="-174.3" font-family="Times New Roman,serif" font-size="14.00">Player_printHandLarge</text>
</g>
<!-- player&#45;&gt;Player_printHandLarge -->
<g id="edge30" class="edge">
<title>player&#45;&gt;Player_printHandLarge</title>
<path fill="none" stroke="black" d="M743.12,-232.05C742.3,-224.35 742.06,-215.03 742.39,-206.36"/>
<polygon fill="black" stroke="black" points="745.89,-206.49 743.09,-196.28 738.91,-206.01 745.89,-206.49"/>
</g>
<!-- player&#45;&gt;Player_printHandLarge -->
<g id="edge31" class="edge">
<title>player&#45;&gt;Player_printHandLarge</title>
<path fill="none" stroke="black" d="M754.88,-232.05C755.7,-224.35 755.94,-215.03 755.61,-206.36"/>
<polygon fill="black" stroke="black" points="759.09,-206.01 754.91,-196.28 752.11,-206.49 759.09,-206.01"/>
</g>
<!-- Player_queryAndReplaceCards -->
<g id="node22" class="node">
<title>Player_queryAndReplaceCards</title>
<ellipse fill="lightgrey" stroke="black" cx="987" cy="-178" rx="125.38" ry="18"/>
<text text-anchor="middle" x="987" y="-174.3" font-family="Times New Roman,serif" font-size="14.00">Player_queryAndReplaceCards</text>
</g>
<!-- player&#45;&gt;Player_queryAndReplaceCards -->
<g id="edge32" class="edge">
<title>player&#45;&gt;Player_queryAndReplaceCards</title>
<path fill="none" stroke="black" d="M777.24,-240.7C813.41,-230.06 877.13,-211.32 924.87,-197.27"/>
<polygon fill="black" stroke="black" points="925.89,-200.62 934.5,-194.44 923.92,-193.91 925.89,-200.62"/>
</g>
<!-- Player_updateMoneyAndPrint -->
<g id="node23" class="node">
<title>Player_updateMoneyAndPrint</title>
<ellipse fill="lightgrey" stroke="black" cx="1251" cy="-178" rx="120.48" ry="18"/>
<text text-anchor="middle" x="1251" y="-174.3" font-family="Times New Roman,serif" font-size="14.00">Player_updateMoneyAndPrint</text>
</g>
<!-- player&#45;&gt;Player_updateMoneyAndPrint -->
<g id="edge33" class="edge">
<title>player&#45;&gt;Player_updateMoneyAndPrint</title>
<path fill="none" stroke="black" d="M780.4,-244.62C854.27,-234.32 1041.42,-208.22 1156.21,-192.22"/>
<polygon fill="black" stroke="black" points="1156.98,-195.64 1166.4,-190.8 1156.02,-188.71 1156.98,-195.64"/>
</g>
<!-- card_struct -->
<g id="node5" class="node">
<title>card_struct</title>
<ellipse fill="lightgrey" stroke="black" cx="1802" cy="-34" rx="51.99" ry="18"/>
<text text-anchor="middle" x="1802" y="-30.3" font-family="Times New Roman,serif" font-size="14.00">card_struct</text>
</g>
<!-- card&#45;&gt;card_struct -->
<g id="edge4" class="edge">
<title>card&#45;&gt;card_struct</title>
<path fill="none" stroke="black" d="M2382.53,-101.95C2291.44,-91.44 1989.5,-56.62 1860.86,-41.79"/>
<polygon fill="black" stroke="black" points="1861.14,-38.3 1850.8,-40.63 1860.33,-45.25 1861.14,-38.3"/>
</g>
<!-- card_create -->
<g id="node6" class="node">
<title>card_create</title>
<ellipse fill="lightgrey" stroke="black" cx="2344" cy="-34" rx="53.09" ry="18"/>
<text text-anchor="middle" x="2344" y="-30.3" font-family="Times New Roman,serif" font-size="14.00">card_create</text>
</g>
<!-- card&#45;&gt;card_create -->
<g id="edge5" class="edge">
<title>card&#45;&gt;card_create</title>
<path fill="none" stroke="black" d="M2395.22,-90.15C2386.78,-81.07 2375.8,-69.24 2366.16,-58.87"/>
<polygon fill="black" stroke="black" points="2368.5,-56.24 2359.13,-51.29 2363.37,-61 2368.5,-56.24"/>
</g>
<!-- card_destroy -->
<g id="node7" class="node">
<title>card_destroy</title>
<ellipse fill="lightgrey" stroke="black" cx="2474" cy="-34" rx="59.29" ry="18"/>
<text text-anchor="middle" x="2474" y="-30.3" font-family="Times New Roman,serif" font-size="14.00">card_destroy</text>
</g>
<!-- card&#45;&gt;card_destroy -->
<g id="edge6" class="edge">
<title>card&#45;&gt;card_destroy</title>
<path fill="none" stroke="black" d="M2422.78,-90.15C2431.1,-81.2 2441.89,-69.58 2451.43,-59.31"/>
<polygon fill="black" stroke="black" points="2454.17,-61.5 2458.41,-51.79 2449.04,-56.74 2454.17,-61.5"/>
</g>
<!-- cardList_get -->
<g id="node8" class="node">
<title>cardList_get</title>
<ellipse fill="lightgrey" stroke="black" cx="1451" cy="-178" rx="55.79" ry="18"/>
<text text-anchor="middle" x="1451" y="-174.3" font-family="Times New Roman,serif" font-size="14.00">cardList_get</text>
</g>
<!-- cardList&#45;&gt;cardList_get -->
<g id="edge7" class="edge">
<title>cardList&#45;&gt;cardList_get</title>
<path fill="none" stroke="black" d="M2056.82,-247.68C1961.9,-244.04 1716.56,-231.68 1515,-196 1510.36,-195.18 1505.57,-194.19 1500.79,-193.1"/>
<polygon fill="black" stroke="black" points="1501.6,-189.69 1491.05,-190.75 1499.96,-196.49 1501.6,-189.69"/>
</g>
<!-- cardList_unshift -->
<g id="node9" class="node">
<title>cardList_unshift</title>
<ellipse fill="lightgrey" stroke="black" cx="1594" cy="-178" rx="69.59" ry="18"/>
<text text-anchor="middle" x="1594" y="-174.3" font-family="Times New Roman,serif" font-size="14.00">cardList_unshift</text>
</g>
<!-- cardList&#45;&gt;cardList_unshift -->
<g id="edge9" class="edge">
<title>cardList&#45;&gt;cardList_unshift</title>
<path fill="none" stroke="black" d="M2057.96,-245.28C1983.03,-237.87 1813.97,-219.93 1673,-196 1666.92,-194.97 1660.6,-193.79 1654.29,-192.54"/>
<polygon fill="black" stroke="black" points="1654.94,-189.1 1644.45,-190.54 1653.55,-195.96 1654.94,-189.1"/>
</g>
<!-- cardList_shift -->
<g id="node10" class="node">
<title>cardList_shift</title>
<ellipse fill="lightgrey" stroke="black" cx="1743" cy="-178" rx="61.19" ry="18"/>
<text text-anchor="middle" x="1743" y="-174.3" font-family="Times New Roman,serif" font-size="14.00">cardList_shift</text>
</g>
<!-- cardList&#45;&gt;cardList_shift -->
<g id="edge11" class="edge">
<title>cardList&#45;&gt;cardList_shift</title>
<path fill="none" stroke="black" d="M2059.66,-242.69C2005.24,-233.35 1901.03,-214.89 1813,-196 1808.08,-194.94 1802.98,-193.8 1797.88,-192.62"/>
<polygon fill="black" stroke="black" points="1798.64,-189.21 1788.1,-190.33 1797.04,-196.02 1798.64,-189.21"/>
</g>
<!-- cardList_insertAfter -->
<g id="node11" class="node">
<title>cardList_insertAfter</title>
<ellipse fill="lightgrey" stroke="black" cx="1905" cy="-178" rx="83.39" ry="18"/>
<text text-anchor="middle" x="1905" y="-174.3" font-family="Times New Roman,serif" font-size="14.00">cardList_insertAfter</text>
</g>
<!-- cardList&#45;&gt;cardList_insertAfter -->
<g id="edge13" class="edge">
<title>cardList&#45;&gt;cardList_insertAfter</title>
<path fill="none" stroke="black" d="M2066.58,-237.91C2036.71,-227.02 1990.63,-210.22 1955.3,-197.34"/>
<polygon fill="black" stroke="black" points="1956.24,-193.96 1945.65,-193.82 1953.85,-200.53 1956.24,-193.96"/>
</g>
<!-- cardList_removeAfter -->
<g id="node12" class="node">
<title>cardList_removeAfter</title>
<ellipse fill="lightgrey" stroke="black" cx="2097" cy="-178" rx="90.98" ry="18"/>
<text text-anchor="middle" x="2097" y="-174.3" font-family="Times New Roman,serif" font-size="14.00">cardList_removeAfter</text>
</g>
<!-- cardList&#45;&gt;cardList_removeAfter -->
<g id="edge15" class="edge">
<title>cardList&#45;&gt;cardList_removeAfter</title>
<path fill="none" stroke="black" d="M2097,-231.7C2097,-223.98 2097,-214.71 2097,-206.11"/>
<polygon fill="black" stroke="black" points="2100.5,-206.1 2097,-196.1 2093.5,-206.1 2100.5,-206.1"/>
</g>
<!-- cardList_last -->
<g id="node13" class="node">
<title>cardList_last</title>
<ellipse fill="lightgrey" stroke="black" cx="2264" cy="-178" rx="57.69" ry="18"/>
<text text-anchor="middle" x="2264" y="-174.3" font-family="Times New Roman,serif" font-size="14.00">cardList_last</text>
</g>
<!-- cardList&#45;&gt;cardList_last -->
<g id="edge17" class="edge">
<title>cardList&#45;&gt;cardList_last</title>
<path fill="none" stroke="black" d="M2125.33,-237.13C2151.7,-226.07 2191.35,-209.45 2221.51,-196.81"/>
<polygon fill="black" stroke="black" points="2223.06,-199.95 2230.93,-192.86 2220.36,-193.5 2223.06,-199.95"/>
</g>
<!-- cardLust_length -->
<g id="node14" class="node">
<title>cardLust_length</title>
<ellipse fill="lightgrey" stroke="black" cx="2409" cy="-178" rx="69.59" ry="18"/>
<text text-anchor="middle" x="2409" y="-174.3" font-family="Times New Roman,serif" font-size="14.00">cardLust_length</text>
</g>
<!-- cardList&#45;&gt;cardLust_length -->
<g id="edge19" class="edge">
<title>cardList&#45;&gt;cardLust_length</title>
<path fill="none" stroke="black" d="M2132.18,-241.11C2184.6,-229.35 2283.91,-207.07 2348.23,-192.63"/>
<polygon fill="black" stroke="black" points="2349.25,-195.99 2358.24,-190.39 2347.71,-189.16 2349.25,-195.99"/>
</g>
<!-- cardList_shuffle -->
<g id="node15" class="node">
<title>cardList_shuffle</title>
<ellipse fill="lightgrey" stroke="black" cx="2566" cy="-178" rx="69.59" ry="18"/>
<text text-anchor="middle" x="2566" y="-174.3" font-family="Times New Roman,serif" font-size="14.00">cardList_shuffle</text>
</g>
<!-- cardList&#45;&gt;cardList_shuffle -->
<g id="edge21" class="edge">
<title>cardList&#45;&gt;cardList_shuffle</title>
<path fill="none" stroke="black" d="M2135.73,-244.79C2206.13,-236.9 2359.66,-218.65 2488,-196 2493.77,-194.98 2499.76,-193.84 2505.75,-192.63"/>
<polygon fill="black" stroke="black" points="2506.68,-196.01 2515.77,-190.57 2505.27,-189.16 2506.68,-196.01"/>
</g>
<!-- cardList_concat -->
<g id="node16" class="node">
<title>cardList_concat</title>
<ellipse fill="lightgrey" stroke="black" cx="2723" cy="-178" rx="69.59" ry="18"/>
<text text-anchor="middle" x="2723" y="-174.3" font-family="Times New Roman,serif" font-size="14.00">cardList_concat</text>
</g>
<!-- cardList&#45;&gt;cardList_concat -->
<g id="edge23" class="edge">
<title>cardList&#45;&gt;cardList_concat</title>
<path fill="none" stroke="black" d="M2136.74,-246.77C2227.33,-241.34 2455.9,-225.64 2645,-196 2650.88,-195.08 2656.98,-193.99 2663.06,-192.81"/>
<polygon fill="black" stroke="black" points="2664.12,-196.17 2673.23,-190.76 2662.74,-189.31 2664.12,-196.17"/>
</g>
<!-- cardList_get&#45;&gt;card -->
<g id="edge8" class="edge">
<title>cardList_get&#45;&gt;card</title>
<path fill="none" stroke="black" d="M1481.31,-162.86C1491.76,-158.6 1503.69,-154.43 1515,-152 1682.32,-116.1 2223.42,-108.66 2371.33,-107.29"/>
<polygon fill="black" stroke="black" points="2371.72,-110.78 2381.69,-107.2 2371.66,-103.78 2371.72,-110.78"/>
</g>
<!-- cardList_unshift&#45;&gt;card -->
<g id="edge10" class="edge">
<title>cardList_unshift&#45;&gt;card</title>
<path fill="none" stroke="black" d="M1632.09,-162.87C1644.92,-158.67 1659.42,-154.52 1673,-152 1809.34,-126.66 2242.08,-111.98 2371.86,-108.07"/>
<polygon fill="black" stroke="black" points="2372.18,-111.56 2382.07,-107.76 2371.97,-104.56 2372.18,-111.56"/>
</g>
<!-- cardList_shift&#45;&gt;card -->
<g id="edge12" class="edge">
<title>cardList_shift&#45;&gt;card</title>
<path fill="none" stroke="black" d="M1776.65,-162.93C1788.01,-158.73 1800.88,-154.57 1813,-152 2020.69,-107.91 2277.13,-105.55 2371.7,-106.38"/>
<polygon fill="black" stroke="black" points="2371.87,-109.88 2381.91,-106.49 2371.94,-102.88 2371.87,-109.88"/>
</g>
<!-- cardList_insertAfter&#45;&gt;card -->
<g id="edge14" class="edge">
<title>cardList_insertAfter&#45;&gt;card</title>
<path fill="none" stroke="black" d="M1951,-162.98C1965.6,-158.94 1981.88,-154.86 1997,-152 2133.79,-126.11 2299.16,-113.65 2371.76,-109.11"/>
<polygon fill="black" stroke="black" points="2372.02,-112.6 2381.79,-108.49 2371.59,-105.61 2372.02,-112.6"/>
</g>
<!-- cardList_removeAfter&#45;&gt;card -->
<g id="edge16" class="edge">
<title>cardList_removeAfter&#45;&gt;card</title>
<path fill="none" stroke="black" d="M2150.11,-163.35C2165.23,-159.56 2181.74,-155.53 2197,-152 2258.85,-137.71 2331.25,-122.71 2373.43,-114.14"/>
<polygon fill="black" stroke="black" points="2374.37,-117.52 2383.48,-112.11 2372.99,-110.66 2374.37,-117.52"/>
</g>
<!-- cardList_last&#45;&gt;card -->
<g id="edge18" class="edge">
<title>cardList_last&#45;&gt;card</title>
<path fill="none" stroke="black" d="M2294.04,-162.5C2318.65,-150.62 2353.33,-133.88 2378.15,-121.89"/>
<polygon fill="black" stroke="black" points="2379.98,-124.89 2387.47,-117.39 2376.94,-118.59 2379.98,-124.89"/>
</g>
<!-- cardLust_length&#45;&gt;card -->
<g id="edge20" class="edge">
<title>cardLust_length&#45;&gt;card</title>
<path fill="none" stroke="black" d="M2409,-159.7C2409,-151.98 2409,-142.71 2409,-134.11"/>
<polygon fill="black" stroke="black" points="2412.5,-134.1 2409,-124.1 2405.5,-134.1 2412.5,-134.1"/>
</g>
<!-- cardList_shuffle&#45;&gt;card -->
<g id="edge22" class="edge">
<title>cardList_shuffle&#45;&gt;card</title>
<path fill="none" stroke="black" d="M2532.7,-162.15C2505.45,-150 2467.16,-132.93 2440.43,-121.01"/>
<polygon fill="black" stroke="black" points="2441.7,-117.75 2431.14,-116.87 2438.85,-124.14 2441.7,-117.75"/>
</g>
<!-- cardList_concat&#45;&gt;card -->
<g id="edge24" class="edge">
<title>cardList_concat&#45;&gt;card</title>
<path fill="none" stroke="black" d="M2683.19,-163.21C2671.02,-159.27 2657.54,-155.19 2645,-152 2574.92,-134.16 2491.51,-119.84 2444.97,-112.46"/>
<polygon fill="black" stroke="black" points="2445.49,-109 2435.07,-110.91 2444.41,-115.91 2445.49,-109"/>
</g>
<!-- Player_struct&#45;&gt;card_struct -->
<g id="edge26" class="edge">
<title>Player_struct&#45;&gt;card_struct</title>
<path fill="none" stroke="black" d="M106.15,-162.87C117.02,-158.68 129.35,-154.53 141,-152 455.33,-83.78 1478.23,-45.76 1740.36,-36.98"/>
<polygon fill="black" stroke="black" points="1740.57,-40.47 1750.45,-36.64 1740.34,-33.48 1740.57,-40.47"/>
</g>
<!-- dealCards -->
<g id="node24" class="node">
<title>dealCards</title>
<ellipse fill="lightgrey" stroke="black" cx="3456" cy="-325" rx="47.39" ry="18"/>
<text text-anchor="middle" x="3456" y="-321.3" font-family="Times New Roman,serif" font-size="14.00">dealCards</text>
</g>
<!-- dealCards&#45;&gt;card -->
<g id="edge34" class="edge">
<title>dealCards&#45;&gt;card</title>
<path fill="none" stroke="black" d="M3490.05,-312.29C3497.22,-310.21 3504.8,-308.3 3512,-307 3526.02,-304.47 3630.24,-309.39 3640,-299 3660.39,-277.3 3658.38,-255.42 3640,-232 3547.63,-114.3 3461.05,-173.59 3313,-152 3141.58,-127 2594.88,-111.68 2446.48,-107.91"/>
<polygon fill="black" stroke="black" points="2446.18,-104.41 2436.1,-107.65 2446,-111.4 2446.18,-104.41"/>
</g>
<!-- replaceCard -->
<g id="node25" class="node">
<title>replaceCard</title>
<ellipse fill="lightgrey" stroke="black" cx="3576" cy="-325" rx="54.69" ry="18"/>
<text text-anchor="middle" x="3576" y="-321.3" font-family="Times New Roman,serif" font-size="14.00">replaceCard</text>
</g>
<!-- replaceCard&#45;&gt;card -->
<g id="edge35" class="edge">
<title>replaceCard&#45;&gt;card</title>
<path fill="none" stroke="black" d="M3628.18,-319.58C3640.88,-315.89 3653.07,-309.59 3661,-299 3678.84,-275.16 3677.45,-256.82 3661,-232 3610.62,-155.96 3560.99,-172.03 3472,-152 3270.54,-106.66 2610.1,-106.19 2446.11,-106.8"/>
<polygon fill="black" stroke="black" points="2446.02,-103.3 2436.04,-106.84 2446.05,-110.3 2446.02,-103.3"/>
</g>
<!-- hasFlush -->
<g id="node26" class="node">
<title>hasFlush</title>
<ellipse fill="lightgrey" stroke="black" cx="3588" cy="-250" rx="42.79" ry="18"/>
<text text-anchor="middle" x="3588" y="-246.3" font-family="Times New Roman,serif" font-size="14.00">hasFlush</text>
</g>
<!-- hasFlush&#45;&gt;card -->
<g id="edge36" class="edge">
<title>hasFlush&#45;&gt;card</title>
<path fill="none" stroke="black" d="M3555.68,-237.95C3549.19,-235.87 3542.4,-233.79 3536,-232 3384.81,-189.79 3347.37,-174.36 3192,-152 2907.38,-111.03 2559.49,-107.03 2446.41,-106.89"/>
<polygon fill="black" stroke="black" points="2446.22,-103.39 2436.21,-106.88 2446.21,-110.39 2446.22,-103.39"/>
</g>
<!-- generateCounts -->
<g id="node27" class="node">
<title>generateCounts</title>
<ellipse fill="lightgrey" stroke="black" cx="3116" cy="-178" rx="66.89" ry="18"/>
<text text-anchor="middle" x="3116" y="-174.3" font-family="Times New Roman,serif" font-size="14.00">generateCounts</text>
</g>
<!-- generateCounts&#45;&gt;card -->
<g id="edge37" class="edge">
<title>generateCounts&#45;&gt;card</title>
<path fill="none" stroke="black" d="M3054.19,-170.88C2910.95,-156.7 2559.87,-121.94 2445.6,-110.62"/>
<polygon fill="black" stroke="black" points="2445.9,-107.14 2435.6,-109.63 2445.21,-114.1 2445.9,-107.14"/>
</g>
<!-- hasStraight -->
<g id="node28" class="node">
<title>hasStraight</title>
<ellipse fill="lightgrey" stroke="black" cx="2898" cy="-250" rx="50.89" ry="18"/>
<text text-anchor="middle" x="2898" y="-246.3" font-family="Times New Roman,serif" font-size="14.00">hasStraight</text>
</g>
<!-- hasStraight&#45;&gt;generateCounts -->
<g id="edge38" class="edge">
<title>hasStraight&#45;&gt;generateCounts</title>
<path fill="none" stroke="black" d="M2934.49,-237.28C2970.21,-225.81 3024.94,-208.24 3064.97,-195.39"/>
<polygon fill="black" stroke="black" points="3066.1,-198.7 3074.55,-192.31 3063.96,-192.03 3066.1,-198.7"/>
</g>
<!-- hasThreeOfKind -->
<g id="node29" class="node">
<title>hasThreeOfKind</title>
<ellipse fill="lightgrey" stroke="black" cx="3038" cy="-250" rx="71.49" ry="18"/>
<text text-anchor="middle" x="3038" y="-246.3" font-family="Times New Roman,serif" font-size="14.00">hasThreeOfKind</text>
</g>
<!-- hasThreeOfKind&#45;&gt;generateCounts -->
<g id="edge39" class="edge">
<title>hasThreeOfKind&#45;&gt;generateCounts</title>
<path fill="none" stroke="black" d="M3056.48,-232.41C3066.49,-223.43 3079.01,-212.19 3089.99,-202.34"/>
<polygon fill="black" stroke="black" points="3092.54,-204.75 3097.65,-195.47 3087.87,-199.54 3092.54,-204.75"/>
</g>
<!-- hasFourOfKind -->
<g id="node30" class="node">
<title>hasFourOfKind</title>
<ellipse fill="lightgrey" stroke="black" cx="3195" cy="-250" rx="67.69" ry="18"/>
<text text-anchor="middle" x="3195" y="-246.3" font-family="Times New Roman,serif" font-size="14.00">hasFourOfKind</text>
</g>
<!-- hasFourOfKind&#45;&gt;generateCounts -->
<g id="edge40" class="edge">
<title>hasFourOfKind&#45;&gt;generateCounts</title>
<path fill="none" stroke="black" d="M3176.28,-232.41C3166.14,-223.43 3153.46,-212.19 3142.34,-202.34"/>
<polygon fill="black" stroke="black" points="3144.39,-199.48 3134.59,-195.47 3139.75,-204.72 3144.39,-199.48"/>
</g>
<!-- hasTwoPair -->
<g id="node31" class="node">
<title>hasTwoPair</title>
<ellipse fill="lightgrey" stroke="black" cx="3335" cy="-250" rx="53.89" ry="18"/>
<text text-anchor="middle" x="3335" y="-246.3" font-family="Times New Roman,serif" font-size="14.00">hasTwoPair</text>
</g>
<!-- hasTwoPair&#45;&gt;generateCounts -->
<g id="edge41" class="edge">
<title>hasTwoPair&#45;&gt;generateCounts</title>
<path fill="none" stroke="black" d="M3297.35,-236.97C3261.31,-225.45 3206.68,-207.98 3166.8,-195.24"/>
<polygon fill="black" stroke="black" points="3167.84,-191.9 3157.25,-192.18 3165.71,-198.56 3167.84,-191.9"/>
</g>
<!-- hasFullHouse -->
<g id="node32" class="node">
<title>hasFullHouse</title>
<ellipse fill="lightgrey" stroke="black" cx="3467" cy="-250" rx="59.59" ry="18"/>
<text text-anchor="middle" x="3467" y="-246.3" font-family="Times New Roman,serif" font-size="14.00">hasFullHouse</text>
</g>
<!-- hasFullHouse&#45;&gt;generateCounts -->
<g id="edge42" class="edge">
<title>hasFullHouse&#45;&gt;generateCounts</title>
<path fill="none" stroke="black" d="M3422.91,-237.75C3414.65,-235.75 3406.08,-233.75 3398,-232 3323.83,-215.91 3238.06,-200.2 3180.77,-190.11"/>
<polygon fill="black" stroke="black" points="3181.22,-186.64 3170.77,-188.36 3180.02,-193.54 3181.22,-186.64"/>
</g>
<!-- getHandType -->
<g id="node33" class="node">
<title>getHandType</title>
<ellipse fill="lightgrey" stroke="black" cx="3263" cy="-325" rx="59.59" ry="18"/>
<text text-anchor="middle" x="3263" y="-321.3" font-family="Times New Roman,serif" font-size="14.00">getHandType</text>
</g>
<!-- getHandType&#45;&gt;hasFlush -->
<g id="edge43" class="edge">
<title>getHandType&#45;&gt;hasFlush</title>
<path fill="none" stroke="black" d="M3315.94,-316.62C3341.32,-313.29 3372.19,-309.54 3400,-307 3430.15,-304.25 3508.14,-310.85 3536,-299 3548.37,-293.74 3559.66,-284.21 3568.54,-275.03"/>
<polygon fill="black" stroke="black" points="3571.25,-277.24 3575.4,-267.49 3566.08,-272.53 3571.25,-277.24"/>
</g>
<!-- getHandType&#45;&gt;hasStraight -->
<g id="edge44" class="edge">
<title>getHandType&#45;&gt;hasStraight</title>
<path fill="none" stroke="black" d="M3203.37,-323.22C3127.5,-321.53 3001.14,-316.14 2958,-299 2944.17,-293.5 2931,-283.68 2920.54,-274.35"/>
<polygon fill="black" stroke="black" points="2922.8,-271.67 2913.1,-267.39 2918.01,-276.78 2922.8,-271.67"/>
</g>
<!-- getHandType&#45;&gt;hasThreeOfKind -->
<g id="edge45" class="edge">
<title>getHandType&#45;&gt;hasThreeOfKind</title>
<path fill="none" stroke="black" d="M3206.31,-319.14C3178.99,-315.57 3146.14,-309.45 3118,-299 3100.65,-292.56 3082.85,-282.3 3068.45,-272.92"/>
<polygon fill="black" stroke="black" points="3070.22,-269.89 3059.97,-267.23 3066.33,-275.71 3070.22,-269.89"/>
</g>
<!-- getHandType&#45;&gt;hasFourOfKind -->
<g id="edge46" class="edge">
<title>getHandType&#45;&gt;hasFourOfKind</title>
<path fill="none" stroke="black" d="M3247.57,-307.44C3238.68,-297.89 3227.34,-285.72 3217.47,-275.13"/>
<polygon fill="black" stroke="black" points="3219.98,-272.68 3210.6,-267.75 3214.86,-277.45 3219.98,-272.68"/>
</g>
<!-- getHandType&#45;&gt;hasTwoPair -->
<g id="edge47" class="edge">
<title>getHandType&#45;&gt;hasTwoPair</title>
<path fill="none" stroke="black" d="M3279.34,-307.44C3288.89,-297.75 3301.1,-285.37 3311.65,-274.68"/>
<polygon fill="black" stroke="black" points="3314.44,-276.83 3318.97,-267.25 3309.46,-271.91 3314.44,-276.83"/>
</g>
<!-- getHandType&#45;&gt;hasFullHouse -->
<g id="edge48" class="edge">
<title>getHandType&#45;&gt;hasFullHouse</title>
<path fill="none" stroke="black" d="M3319.37,-318.98C3344.19,-315.41 3373.25,-309.33 3398,-299 3413.1,-292.7 3428.21,-282.71 3440.42,-273.47"/>
<polygon fill="black" stroke="black" points="3442.66,-276.16 3448.38,-267.25 3438.35,-270.65 3442.66,-276.16"/>
</g>
</g>
</svg>
