<?xml version="1.0" encoding="UTF-8" standalone="no"?>
<!DOCTYPE svg PUBLIC "-//W3C//DTD SVG 1.1//EN"
 "http://www.w3.org/Graphics/SVG/1.1/DTD/svg11.dtd">
<!-- Generated by graphviz version 2.49.3 (20211023.0002)
 -->
<!-- Pages: 1 -->
<svg width="3958pt" height="434pt"
 viewBox="0.00 0.00 3958.09 434.00" xmlns="http://www.w3.org/2000/svg" xmlns:xlink="http://www.w3.org/1999/xlink">
<g id="graph0" class="graph" transform="scale(1 1) rotate(0) translate(4 430)">
<polygon fill="white" stroke="transparent" points="-4,4 -4,-430 3954.09,-430 3954.09,4 -4,4"/>
<g id="clust1" class="cluster">
<title>cluster_card</title>
<polygon fill="none" stroke="blue" points="16.09,-152 16.09,-299 1686.09,-299 1686.09,-152 16.09,-152"/>
<text text-anchor="middle" x="851.09" y="-283.8" font-family="Times New Roman,serif" font-size="14.00">card.c</text>
</g>
<g id="clust2" class="cluster">
<title>cluster_handutils</title>
<polygon fill="none" stroke="blue" points="3226.09,-8 3226.09,-299 3942.09,-299 3942.09,-8 3226.09,-8"/>
<text text-anchor="middle" x="3584.09" y="-283.8" font-family="Times New Roman,serif" font-size="14.00">handutils.c</text>
</g>
<g id="clust3" class="cluster">
<title>cluster_utils</title>
<polygon fill="none" stroke="blue" points="1123.09,-307 1123.09,-382 1654.09,-382 1654.09,-307 1123.09,-307"/>
<text text-anchor="middle" x="1388.59" y="-366.8" font-family="Times New Roman,serif" font-size="14.00">utils.c</text>
</g>
<g id="clust4" class="cluster">
<title>cluster_player</title>
<polygon fill="none" stroke="blue" points="1694.09,-224 1694.09,-382 3218.09,-382 3218.09,-224 1694.09,-224"/>
<text text-anchor="middle" x="2456.09" y="-366.8" font-family="Times New Roman,serif" font-size="14.00">player.c</text>
</g>
<!-- card_struct -->
<g id="node1" class="node">
<title>card_struct</title>
<ellipse fill="lightgrey" stroke="black" cx="874.09" cy="-178" rx="51.99" ry="18"/>
<text text-anchor="middle" x="874.09" y="-174.3" font-family="Times New Roman,serif" font-size="14.00">card_struct</text>
</g>
<!-- card_create -->
<g id="node2" class="node">
<title>card_create</title>
<ellipse fill="lightgrey" stroke="black" cx="77.09" cy="-250" rx="53.09" ry="18"/>
<text text-anchor="middle" x="77.09" y="-246.3" font-family="Times New Roman,serif" font-size="14.00">card_create</text>
</g>
<!-- card_destroy -->
<g id="node3" class="node">
<title>card_destroy</title>
<ellipse fill="lightgrey" stroke="black" cx="1461.09" cy="-250" rx="59.29" ry="18"/>
<text text-anchor="middle" x="1461.09" y="-246.3" font-family="Times New Roman,serif" font-size="14.00">card_destroy</text>
</g>
<!-- cardList_get -->
<g id="node4" class="node">
<title>cardList_get</title>
<ellipse fill="lightgrey" stroke="black" cx="1328.09" cy="-250" rx="55.79" ry="18"/>
<text text-anchor="middle" x="1328.09" y="-246.3" font-family="Times New Roman,serif" font-size="14.00">cardList_get</text>
</g>
<!-- cardList_get&#45;&gt;card_struct -->
<g id="edge1" class="edge">
<title>cardList_get&#45;&gt;card_struct</title>
<path fill="none" stroke="black" d="M1297.04,-235.02C1286.74,-230.88 1275.09,-226.73 1264.09,-224 1150.31,-195.72 1013.34,-185.12 935.72,-181.22"/>
<polygon fill="black" stroke="black" points="935.79,-177.72 925.63,-180.73 935.45,-184.71 935.79,-177.72"/>
</g>
<!-- cardList_unshift -->
<g id="node5" class="node">
<title>cardList_unshift</title>
<ellipse fill="lightgrey" stroke="black" cx="218.09" cy="-250" rx="69.59" ry="18"/>
<text text-anchor="middle" x="218.09" y="-246.3" font-family="Times New Roman,serif" font-size="14.00">cardList_unshift</text>
</g>
<!-- cardList_unshift&#45;&gt;card_struct -->
<g id="edge2" class="edge">
<title>cardList_unshift&#45;&gt;card_struct</title>
<path fill="none" stroke="black" d="M256.11,-234.86C268.68,-230.72 282.84,-226.6 296.09,-224 481.28,-187.63 705.27,-180.4 811.87,-179.13"/>
<polygon fill="black" stroke="black" points="812.16,-182.63 822.13,-179.02 812.09,-175.63 812.16,-182.63"/>
</g>
<!-- cardList_shift -->
<g id="node6" class="node">
<title>cardList_shift</title>
<ellipse fill="lightgrey" stroke="black" cx="1036.09" cy="-250" rx="61.19" ry="18"/>
<text text-anchor="middle" x="1036.09" y="-246.3" font-family="Times New Roman,serif" font-size="14.00">cardList_shift</text>
</g>
<!-- cardList_shift&#45;&gt;card_struct -->
<g id="edge3" class="edge">
<title>cardList_shift&#45;&gt;card_struct</title>
<path fill="none" stroke="black" d="M1002.92,-234.67C977.33,-223.61 941.82,-208.27 914.57,-196.49"/>
<polygon fill="black" stroke="black" points="915.87,-193.24 905.3,-192.48 913.09,-199.66 915.87,-193.24"/>
</g>
<!-- cardList_insertAfter -->
<g id="node7" class="node">
<title>cardList_insertAfter</title>
<ellipse fill="lightgrey" stroke="black" cx="874.09" cy="-250" rx="83.39" ry="18"/>
<text text-anchor="middle" x="874.09" y="-246.3" font-family="Times New Roman,serif" font-size="14.00">cardList_insertAfter</text>
</g>
<!-- cardList_insertAfter&#45;&gt;card_struct -->
<g id="edge4" class="edge">
<title>cardList_insertAfter&#45;&gt;card_struct</title>
<path fill="none" stroke="black" d="M874.09,-231.7C874.09,-223.98 874.09,-214.71 874.09,-206.11"/>
<polygon fill="black" stroke="black" points="877.59,-206.1 874.09,-196.1 870.59,-206.1 877.59,-206.1"/>
</g>
<!-- cardList_removeAfter -->
<g id="node8" class="node">
<title>cardList_removeAfter</title>
<ellipse fill="lightgrey" stroke="black" cx="682.09" cy="-250" rx="90.98" ry="18"/>
<text text-anchor="middle" x="682.09" y="-246.3" font-family="Times New Roman,serif" font-size="14.00">cardList_removeAfter</text>
</g>
<!-- cardList_removeAfter&#45;&gt;card_struct -->
<g id="edge5" class="edge">
<title>cardList_removeAfter&#45;&gt;card_struct</title>
<path fill="none" stroke="black" d="M723.75,-233.81C755.14,-222.37 798.07,-206.71 830.03,-195.06"/>
<polygon fill="black" stroke="black" points="831.37,-198.3 839.57,-191.59 828.97,-191.72 831.37,-198.3"/>
</g>
<!-- cardList_last -->
<g id="node9" class="node">
<title>cardList_last</title>
<ellipse fill="lightgrey" stroke="black" cx="515.09" cy="-250" rx="57.69" ry="18"/>
<text text-anchor="middle" x="515.09" y="-246.3" font-family="Times New Roman,serif" font-size="14.00">cardList_last</text>
</g>
<!-- cardList_last&#45;&gt;card_struct -->
<g id="edge6" class="edge">
<title>cardList_last&#45;&gt;card_struct</title>
<path fill="none" stroke="black" d="M548.06,-235.17C558.77,-231.1 570.8,-226.94 582.09,-224 661.15,-203.39 754.87,-191.01 814.4,-184.59"/>
<polygon fill="black" stroke="black" points="814.81,-188.07 824.38,-183.54 814.07,-181.11 814.81,-188.07"/>
</g>
<!-- cardList_length -->
<g id="node10" class="node">
<title>cardList_length</title>
<ellipse fill="lightgrey" stroke="black" cx="372.09" cy="-250" rx="66.89" ry="18"/>
<text text-anchor="middle" x="372.09" y="-246.3" font-family="Times New Roman,serif" font-size="14.00">cardList_length</text>
</g>
<!-- cardList_length&#45;&gt;card_struct -->
<g id="edge7" class="edge">
<title>cardList_length&#45;&gt;card_struct</title>
<path fill="none" stroke="black" d="M409.54,-234.93C421.69,-230.84 435.33,-226.74 448.09,-224 576,-196.53 729.27,-185.57 812.66,-181.39"/>
<polygon fill="black" stroke="black" points="812.9,-184.88 822.72,-180.9 812.56,-177.89 812.9,-184.88"/>
</g>
<!-- cardList_shuffle -->
<g id="node11" class="node">
<title>cardList_shuffle</title>
<ellipse fill="lightgrey" stroke="black" cx="1185.09" cy="-250" rx="69.59" ry="18"/>
<text text-anchor="middle" x="1185.09" y="-246.3" font-family="Times New Roman,serif" font-size="14.00">cardList_shuffle</text>
</g>
<!-- cardList_shuffle&#45;&gt;card_struct -->
<g id="edge8" class="edge">
<title>cardList_shuffle&#45;&gt;card_struct</title>
<path fill="none" stroke="black" d="M1144.75,-235.25C1132.43,-231.32 1118.78,-227.23 1106.09,-224 1046.63,-208.88 977.48,-196.07 930.25,-188.03"/>
<polygon fill="black" stroke="black" points="930.66,-184.55 920.22,-186.34 929.5,-191.45 930.66,-184.55"/>
</g>
<!-- cardList_concat -->
<g id="node12" class="node">
<title>cardList_concat</title>
<ellipse fill="lightgrey" stroke="black" cx="1608.09" cy="-250" rx="69.59" ry="18"/>
<text text-anchor="middle" x="1608.09" y="-246.3" font-family="Times New Roman,serif" font-size="14.00">cardList_concat</text>
</g>
<!-- cardList_concat&#45;&gt;card_struct -->
<g id="edge9" class="edge">
<title>cardList_concat&#45;&gt;card_struct</title>
<path fill="none" stroke="black" d="M1569.99,-234.93C1557.16,-230.73 1542.66,-226.57 1529.09,-224 1314.4,-183.26 1053.93,-178.3 936.64,-178.38"/>
<polygon fill="black" stroke="black" points="936.42,-174.88 926.42,-178.4 936.43,-181.88 936.42,-174.88"/>
</g>
<!-- dealCards -->
<g id="node13" class="node">
<title>dealCards</title>
<ellipse fill="lightgrey" stroke="black" cx="3783.09" cy="-106" rx="47.39" ry="18"/>
<text text-anchor="middle" x="3783.09" y="-102.3" font-family="Times New Roman,serif" font-size="14.00">dealCards</text>
</g>
<!-- card -->
<g id="node14" class="node">
<title>card</title>
<ellipse fill="lightgrey" stroke="black" cx="3593.09" cy="-34" rx="27" ry="18"/>
<text text-anchor="middle" x="3593.09" y="-30.3" font-family="Times New Roman,serif" font-size="14.00">card</text>
</g>
<!-- dealCards&#45;&gt;card -->
<g id="edge10" class="edge">
<title>dealCards&#45;&gt;card</title>
<path fill="none" stroke="black" d="M3750,-92.81C3715.16,-79.97 3660.65,-59.89 3625.92,-47.09"/>
<polygon fill="black" stroke="black" points="3626.84,-43.7 3616.25,-43.53 3624.42,-50.27 3626.84,-43.7"/>
</g>
<!-- replaceCard -->
<g id="node15" class="node">
<title>replaceCard</title>
<ellipse fill="lightgrey" stroke="black" cx="3663.09" cy="-106" rx="54.69" ry="18"/>
<text text-anchor="middle" x="3663.09" y="-102.3" font-family="Times New Roman,serif" font-size="14.00">replaceCard</text>
</g>
<!-- replaceCard&#45;&gt;card -->
<g id="edge11" class="edge">
<title>replaceCard&#45;&gt;card</title>
<path fill="none" stroke="black" d="M3646.86,-88.76C3637.37,-79.27 3625.26,-67.17 3614.94,-56.85"/>
<polygon fill="black" stroke="black" points="3617.35,-54.31 3607.81,-49.72 3612.4,-59.26 3617.35,-54.31"/>
</g>
<!-- hasFlush -->
<g id="node16" class="node">
<title>hasFlush</title>
<ellipse fill="lightgrey" stroke="black" cx="3375.09" cy="-106" rx="42.79" ry="18"/>
<text text-anchor="middle" x="3375.09" y="-102.3" font-family="Times New Roman,serif" font-size="14.00">hasFlush</text>
</g>
<!-- hasFlush&#45;&gt;card -->
<g id="edge12" class="edge">
<title>hasFlush&#45;&gt;card</title>
<path fill="none" stroke="black" d="M3408.2,-94.37C3449.14,-81.22 3518.42,-58.98 3559.55,-45.77"/>
<polygon fill="black" stroke="black" points="3560.67,-49.09 3569.12,-42.7 3558.53,-42.42 3560.67,-49.09"/>
</g>
<!-- generateCounts -->
<g id="node17" class="node">
<title>generateCounts</title>
<ellipse fill="lightgrey" stroke="black" cx="3523.09" cy="-106" rx="66.89" ry="18"/>
<text text-anchor="middle" x="3523.09" y="-102.3" font-family="Times New Roman,serif" font-size="14.00">generateCounts</text>
</g>
<!-- generateCounts&#45;&gt;card -->
<g id="edge13" class="edge">
<title>generateCounts&#45;&gt;card</title>
<path fill="none" stroke="black" d="M3539.68,-88.41C3549.18,-78.91 3561.21,-66.88 3571.45,-56.65"/>
<polygon fill="black" stroke="black" points="3573.92,-59.12 3578.52,-49.57 3568.97,-54.17 3573.92,-59.12"/>
</g>
<!-- hasStraight -->
<g id="node18" class="node">
<title>hasStraight</title>
<ellipse fill="lightgrey" stroke="black" cx="3305.09" cy="-178" rx="50.89" ry="18"/>
<text text-anchor="middle" x="3305.09" y="-174.3" font-family="Times New Roman,serif" font-size="14.00">hasStraight</text>
</g>
<!-- hasStraight&#45;&gt;generateCounts -->
<g id="edge14" class="edge">
<title>hasStraight&#45;&gt;generateCounts</title>
<path fill="none" stroke="black" d="M3335.66,-163.45C3345.01,-159.53 3355.4,-155.39 3365.09,-152 3398.11,-140.46 3435.75,-129.65 3466.01,-121.52"/>
<polygon fill="black" stroke="black" points="3467.21,-124.82 3475.97,-118.87 3465.41,-118.06 3467.21,-124.82"/>
</g>
<!-- hasThreeOfKind -->
<g id="node19" class="node">
<title>hasThreeOfKind</title>
<ellipse fill="lightgrey" stroke="black" cx="3445.09" cy="-178" rx="71.49" ry="18"/>
<text text-anchor="middle" x="3445.09" y="-174.3" font-family="Times New Roman,serif" font-size="14.00">hasThreeOfKind</text>
</g>
<!-- hasThreeOfKind&#45;&gt;generateCounts -->
<g id="edge15" class="edge">
<title>hasThreeOfKind&#45;&gt;generateCounts</title>
<path fill="none" stroke="black" d="M3463.58,-160.41C3473.58,-151.43 3486.11,-140.19 3497.08,-130.34"/>
<polygon fill="black" stroke="black" points="3499.63,-132.75 3504.74,-123.47 3494.96,-127.54 3499.63,-132.75"/>
</g>
<!-- hasFourOfKind -->
<g id="node20" class="node">
<title>hasFourOfKind</title>
<ellipse fill="lightgrey" stroke="black" cx="3602.09" cy="-178" rx="67.69" ry="18"/>
<text text-anchor="middle" x="3602.09" y="-174.3" font-family="Times New Roman,serif" font-size="14.00">hasFourOfKind</text>
</g>
<!-- hasFourOfKind&#45;&gt;generateCounts -->
<g id="edge16" class="edge">
<title>hasFourOfKind&#45;&gt;generateCounts</title>
<path fill="none" stroke="black" d="M3583.37,-160.41C3573.24,-151.43 3560.55,-140.19 3549.44,-130.34"/>
<polygon fill="black" stroke="black" points="3551.48,-127.48 3541.68,-123.47 3546.84,-132.72 3551.48,-127.48"/>
</g>
<!-- hasTwoPair -->
<g id="node21" class="node">
<title>hasTwoPair</title>
<ellipse fill="lightgrey" stroke="black" cx="3742.09" cy="-178" rx="53.89" ry="18"/>
<text text-anchor="middle" x="3742.09" y="-174.3" font-family="Times New Roman,serif" font-size="14.00">hasTwoPair</text>
</g>
<!-- hasTwoPair&#45;&gt;generateCounts -->
<g id="edge17" class="edge">
<title>hasTwoPair&#45;&gt;generateCounts</title>
<path fill="none" stroke="black" d="M3709.62,-163.42C3699.87,-159.53 3689.11,-155.42 3679.09,-152 3646.38,-140.82 3609.21,-130.03 3579.36,-121.81"/>
<polygon fill="black" stroke="black" points="3580.1,-118.39 3569.53,-119.13 3578.26,-125.14 3580.1,-118.39"/>
</g>
<!-- hasFullHouse -->
<g id="node22" class="node">
<title>hasFullHouse</title>
<ellipse fill="lightgrey" stroke="black" cx="3874.09" cy="-178" rx="59.59" ry="18"/>
<text text-anchor="middle" x="3874.09" y="-174.3" font-family="Times New Roman,serif" font-size="14.00">hasFullHouse</text>
</g>
<!-- hasFullHouse&#45;&gt;generateCounts -->
<g id="edge18" class="edge">
<title>hasFullHouse&#45;&gt;generateCounts</title>
<path fill="none" stroke="black" d="M3840.14,-163.08C3829.11,-158.99 3816.72,-154.86 3805.09,-152 3715.37,-129.92 3690.04,-140.32 3599.09,-124 3593.38,-122.97 3587.45,-121.82 3581.53,-120.6"/>
<polygon fill="black" stroke="black" points="3582.13,-117.15 3571.62,-118.5 3580.68,-123.99 3582.13,-117.15"/>
</g>
<!-- getHandType -->
<g id="node23" class="node">
<title>getHandType</title>
<ellipse fill="lightgrey" stroke="black" cx="3375.09" cy="-250" rx="59.59" ry="18"/>
<text text-anchor="middle" x="3375.09" y="-246.3" font-family="Times New Roman,serif" font-size="14.00">getHandType</text>
</g>
<!-- getHandType&#45;&gt;hasFlush -->
<g id="edge19" class="edge">
<title>getHandType&#45;&gt;hasFlush</title>
<path fill="none" stroke="black" d="M3321.82,-241.6C3293.98,-234.72 3262.22,-221.49 3245.09,-196 3234.18,-179.77 3233.75,-167.93 3245.09,-152 3262.67,-127.31 3294.77,-116.04 3322.68,-110.95"/>
<polygon fill="black" stroke="black" points="3323.41,-114.38 3332.73,-109.34 3322.3,-107.47 3323.41,-114.38"/>
</g>
<!-- getHandType&#45;&gt;hasStraight -->
<g id="edge20" class="edge">
<title>getHandType&#45;&gt;hasStraight</title>
<path fill="none" stroke="black" d="M3358.5,-232.41C3349.61,-223.52 3338.5,-212.41 3328.72,-202.63"/>
<polygon fill="black" stroke="black" points="3331.11,-200.07 3321.56,-195.47 3326.16,-205.02 3331.11,-200.07"/>
</g>
<!-- getHandType&#45;&gt;hasThreeOfKind -->
<g id="edge21" class="edge">
<title>getHandType&#45;&gt;hasThreeOfKind</title>
<path fill="none" stroke="black" d="M3391.68,-232.41C3400.44,-223.65 3411.36,-212.73 3421.03,-203.06"/>
<polygon fill="black" stroke="black" points="3423.54,-205.5 3428.14,-195.96 3418.59,-200.55 3423.54,-205.5"/>
</g>
<!-- getHandType&#45;&gt;hasFourOfKind -->
<g id="edge22" class="edge">
<title>getHandType&#45;&gt;hasFourOfKind</title>
<path fill="none" stroke="black" d="M3415.41,-236.57C3452.84,-225.02 3508.78,-207.78 3549.66,-195.17"/>
<polygon fill="black" stroke="black" points="3550.92,-198.44 3559.45,-192.15 3548.86,-191.75 3550.92,-198.44"/>
</g>
<!-- getHandType&#45;&gt;hasTwoPair -->
<g id="edge23" class="edge">
<title>getHandType&#45;&gt;hasTwoPair</title>
<path fill="none" stroke="black" d="M3427.55,-241.34C3488.37,-232.11 3591.48,-215.42 3679.09,-196 3683.5,-195.02 3688.07,-193.94 3692.64,-192.8"/>
<polygon fill="black" stroke="black" points="3693.75,-196.13 3702.57,-190.25 3692.01,-189.35 3693.75,-196.13"/>
</g>
<!-- getHandType&#45;&gt;hasFullHouse -->
<g id="edge24" class="edge">
<title>getHandType&#45;&gt;hasFullHouse</title>
<path fill="none" stroke="black" d="M3431.77,-244.18C3514.33,-236.67 3672.31,-220.45 3805.09,-196 3810.19,-195.06 3815.48,-193.97 3820.75,-192.81"/>
<polygon fill="black" stroke="black" points="3821.87,-196.14 3830.83,-190.49 3820.3,-189.32 3821.87,-196.14"/>
</g>
<!-- randBetween -->
<g id="node24" class="node">
<title>randBetween</title>
<ellipse fill="lightgrey" stroke="black" cx="1588.09" cy="-333" rx="57.69" ry="18"/>
<text text-anchor="middle" x="1588.09" y="-329.3" font-family="Times New Roman,serif" font-size="14.00">randBetween</text>
</g>
<!-- scanLine -->
<g id="node25" class="node">
<title>scanLine</title>
<ellipse fill="lightgrey" stroke="black" cx="1469.09" cy="-333" rx="42.79" ry="18"/>
<text text-anchor="middle" x="1469.09" y="-329.3" font-family="Times New Roman,serif" font-size="14.00">scanLine</text>
</g>
<!-- printRepeat -->
<g id="node26" class="node">
<title>printRepeat</title>
<ellipse fill="lightgrey" stroke="black" cx="1355.09" cy="-333" rx="52.79" ry="18"/>
<text text-anchor="middle" x="1355.09" y="-329.3" font-family="Times New Roman,serif" font-size="14.00">printRepeat</text>
</g>
<!-- printRepeatGroup -->
<g id="node27" class="node">
<title>printRepeatGroup</title>
<ellipse fill="lightgrey" stroke="black" cx="1208.09" cy="-333" rx="76.89" ry="18"/>
<text text-anchor="middle" x="1208.09" y="-329.3" font-family="Times New Roman,serif" font-size="14.00">printRepeatGroup</text>
</g>
<!-- Player_struct -->
<g id="node28" class="node">
<title>Player_struct</title>
<ellipse fill="lightgrey" stroke="black" cx="1760.09" cy="-250" rx="58.49" ry="18"/>
<text text-anchor="middle" x="1760.09" y="-246.3" font-family="Times New Roman,serif" font-size="14.00">Player_struct</text>
</g>
<!-- Player_struct&#45;&gt;card_struct -->
<g id="edge25" class="edge">
<title>Player_struct&#45;&gt;card_struct</title>
<path fill="none" stroke="black" d="M1727.18,-235.04C1715.65,-230.75 1702.49,-226.5 1690.09,-224 1546.09,-194.95 1101.13,-183.45 936.32,-180.12"/>
<polygon fill="black" stroke="black" points="935.95,-176.61 925.88,-179.91 935.81,-183.61 935.95,-176.61"/>
</g>
<!-- Player_create -->
<g id="node29" class="node">
<title>Player_create</title>
<ellipse fill="lightgrey" stroke="black" cx="2030.09" cy="-333" rx="59.59" ry="18"/>
<text text-anchor="middle" x="2030.09" y="-329.3" font-family="Times New Roman,serif" font-size="14.00">Player_create</text>
</g>
<!-- Player_create&#45;&gt;Player_struct -->
<g id="edge26" class="edge">
<title>Player_create&#45;&gt;Player_struct</title>
<path fill="none" stroke="black" d="M1994.46,-318.51C1983.78,-314.62 1972.01,-310.49 1961.09,-307 1911.37,-291.09 1853.93,-275.35 1813.22,-264.62"/>
<polygon fill="black" stroke="black" points="1814.06,-261.23 1803.5,-262.08 1812.29,-268 1814.06,-261.23"/>
</g>
<!-- Player_destroy -->
<g id="node30" class="node">
<title>Player_destroy</title>
<ellipse fill="lightgrey" stroke="black" cx="2720.09" cy="-333" rx="65.79" ry="18"/>
<text text-anchor="middle" x="2720.09" y="-329.3" font-family="Times New Roman,serif" font-size="14.00">Player_destroy</text>
</g>
<!-- Player_printMoney -->
<g id="node31" class="node">
<title>Player_printMoney</title>
<ellipse fill="lightgrey" stroke="black" cx="2556.09" cy="-333" rx="79.89" ry="18"/>
<text text-anchor="middle" x="2556.09" y="-329.3" font-family="Times New Roman,serif" font-size="14.00">Player_printMoney</text>
</g>
<!-- Player_queryBet -->
<g id="node32" class="node">
<title>Player_queryBet</title>
<ellipse fill="lightgrey" stroke="black" cx="2179.09" cy="-333" rx="70.69" ry="18"/>
<text text-anchor="middle" x="2179.09" y="-329.3" font-family="Times New Roman,serif" font-size="14.00">Player_queryBet</text>
</g>
<!-- Player_printHand -->
<g id="node33" class="node">
<title>Player_printHand</title>
<ellipse fill="lightgrey" stroke="black" cx="2878.09" cy="-333" rx="74.19" ry="18"/>
<text text-anchor="middle" x="2878.09" y="-329.3" font-family="Times New Roman,serif" font-size="14.00">Player_printHand</text>
</g>
<!-- Player_printHand&#45;&gt;getHandType -->
<g id="edge27" class="edge">
<title>Player_printHand&#45;&gt;getHandType</title>
<path fill="none" stroke="black" d="M2917.7,-317.77C2931.28,-313.51 2946.68,-309.35 2961.09,-307 3075.63,-288.33 3107.66,-318.33 3222.09,-299 3259.74,-292.64 3300.97,-279.32 3331.13,-268.32"/>
<polygon fill="black" stroke="black" points="3332.35,-271.6 3340.51,-264.84 3329.92,-265.03 3332.35,-271.6"/>
</g>
<!-- Player_printHandLarge -->
<g id="node34" class="node">
<title>Player_printHandLarge</title>
<ellipse fill="lightgrey" stroke="black" cx="2363.09" cy="-333" rx="94.78" ry="18"/>
<text text-anchor="middle" x="2363.09" y="-329.3" font-family="Times New Roman,serif" font-size="14.00">Player_printHandLarge</text>
</g>
<!-- Player_printHandLarge&#45;&gt;getHandType -->
<g id="edge28" class="edge">
<title>Player_printHandLarge&#45;&gt;getHandType</title>
<path fill="none" stroke="black" d="M2412.93,-317.61C2429.95,-313.34 2449.22,-309.21 2467.09,-307 2550.35,-296.69 3139.23,-312.14 3222.09,-299 3259.93,-293 3301.29,-279.58 3331.46,-268.45"/>
<polygon fill="black" stroke="black" points="3332.71,-271.72 3340.85,-264.93 3330.26,-265.17 3332.71,-271.72"/>
</g>
<!-- Player_queryAndReplaceCards -->
<g id="node35" class="node">
<title>Player_queryAndReplaceCards</title>
<ellipse fill="lightgrey" stroke="black" cx="1827.09" cy="-333" rx="125.38" ry="18"/>
<text text-anchor="middle" x="1827.09" y="-329.3" font-family="Times New Roman,serif" font-size="14.00">Player_queryAndReplaceCards</text>
</g>
<!-- Player_updateMoneyAndPrint -->
<g id="node36" class="node">
<title>Player_updateMoneyAndPrint</title>
<ellipse fill="lightgrey" stroke="black" cx="3090.09" cy="-333" rx="120.48" ry="18"/>
<text text-anchor="middle" x="3090.09" y="-329.3" font-family="Times New Roman,serif" font-size="14.00">Player_updateMoneyAndPrint</text>
</g>
<!-- main -->
<g id="node37" class="node">
<title>main</title>
<ellipse fill="none" stroke="black" cx="1469.09" cy="-408" rx="27.9" ry="18"/>
<text text-anchor="middle" x="1469.09" y="-404.3" font-family="Times New Roman,serif" font-size="14.00">main</text>
</g>
<!-- main&#45;&gt;card_struct -->
<g id="edge30" class="edge">
<title>main&#45;&gt;card_struct</title>
<path fill="none" stroke="black" d="M1441.17,-406.89C1256.13,-406.14 212.21,-401.02 148.09,-382 81.29,-362.18 48.89,-359.93 15.09,-299 -1.08,-269.85 -7.85,-248.18 15.09,-224 42.47,-195.15 619.38,-183.15 812.06,-179.94"/>
<polygon fill="black" stroke="black" points="812.36,-183.43 822.3,-179.77 812.24,-176.43 812.36,-183.43"/>
</g>
<!-- main&#45;&gt;card_create -->
<g id="edge29" class="edge">
<title>main&#45;&gt;card_create</title>
<path fill="none" stroke="black" d="M1441.1,-407.15C1274.29,-407.96 414.65,-410.69 301.09,-382 222.39,-362.12 143.51,-305.33 103.69,-273.43"/>
<polygon fill="black" stroke="black" points="105.77,-270.61 95.8,-267.03 101.35,-276.05 105.77,-270.61"/>
</g>
<!-- main&#45;&gt;cardList_unshift -->
<g id="edge31" class="edge">
<title>main&#45;&gt;cardList_unshift</title>
<path fill="none" stroke="black" d="M1440.97,-406.97C1289.21,-406.75 571.22,-404.47 475.09,-382 386.9,-361.38 295.06,-304.52 248.73,-272.91"/>
<polygon fill="black" stroke="black" points="250.58,-269.93 240.36,-267.13 246.6,-275.69 250.58,-269.93"/>
</g>
<!-- main&#45;&gt;cardList_length -->
<g id="edge38" class="edge">
<title>main&#45;&gt;cardList_length</title>
<path fill="none" stroke="black" d="M1441.07,-405.85C1376.79,-403.09 1213.83,-395.27 1078.09,-382 797.01,-354.53 713.66,-395.09 448.09,-299 431.36,-292.95 414.45,-282.76 400.85,-273.33"/>
<polygon fill="black" stroke="black" points="402.59,-270.27 392.42,-267.29 398.51,-275.96 402.59,-270.27"/>
</g>
<!-- main&#45;&gt;cardList_shuffle -->
<g id="edge32" class="edge">
<title>main&#45;&gt;cardList_shuffle</title>
<path fill="none" stroke="black" d="M1441.1,-407.26C1358.57,-407.75 1120.44,-406.97 1097.09,-382 1074.33,-357.65 1081.05,-336.22 1097.09,-307 1098.66,-304.14 1126.42,-286.71 1150.34,-272.05"/>
<polygon fill="black" stroke="black" points="1152.22,-275.01 1158.92,-266.81 1148.57,-269.03 1152.22,-275.01"/>
</g>
<!-- main&#45;&gt;cardList_concat -->
<g id="edge44" class="edge">
<title>main&#45;&gt;cardList_concat</title>
<path fill="none" stroke="black" d="M1441.08,-407.14C1361.92,-407.23 1140.86,-405.38 1119.09,-382 1096.38,-357.6 1095.75,-330.8 1119.09,-307 1127.07,-298.87 1518.15,-302.18 1529.09,-299 1547.21,-293.73 1565.36,-283.18 1579.68,-273.3"/>
<polygon fill="black" stroke="black" points="1581.97,-275.96 1588.06,-267.3 1577.9,-270.27 1581.97,-275.96"/>
</g>
<!-- main&#45;&gt;scanLine -->
<g id="edge33" class="edge">
<title>main&#45;&gt;scanLine</title>
<path fill="none" stroke="black" d="M1469.09,-389.7C1469.09,-381.25 1469.09,-370.87 1469.09,-361.37"/>
<polygon fill="black" stroke="black" points="1472.59,-361.18 1469.09,-351.18 1465.59,-361.18 1472.59,-361.18"/>
</g>
<!-- main&#45;&gt;printRepeat -->
<g id="edge37" class="edge">
<title>main&#45;&gt;printRepeat</title>
<path fill="none" stroke="black" d="M1446.28,-397.3C1436.99,-393.02 1426.29,-387.69 1417.09,-382 1404.82,-374.42 1392.08,-364.88 1381.37,-356.32"/>
<polygon fill="black" stroke="black" points="1383.57,-353.6 1373.61,-350 1379.16,-359.03 1383.57,-353.6"/>
</g>
<!-- main&#45;&gt;printRepeatGroup -->
<g id="edge36" class="edge">
<title>main&#45;&gt;printRepeatGroup</title>
<path fill="none" stroke="black" d="M1441.22,-406.22C1405.89,-404.53 1343.5,-399.13 1293.09,-382 1274.58,-375.71 1255.49,-365.34 1240.11,-355.85"/>
<polygon fill="black" stroke="black" points="1241.83,-352.79 1231.51,-350.4 1238.08,-358.71 1241.83,-352.79"/>
</g>
<!-- main&#45;&gt;Player_struct -->
<g id="edge34" class="edge">
<title>main&#45;&gt;Player_struct</title>
<path fill="none" stroke="black" d="M1497.07,-406.53C1543.31,-405.23 1633.07,-400.35 1658.09,-382 1687.75,-360.24 1670.67,-336.16 1693.09,-307 1703,-294.11 1716.37,-282.19 1728.56,-272.69"/>
<polygon fill="black" stroke="black" points="1730.87,-275.34 1736.75,-266.52 1726.65,-269.75 1730.87,-275.34"/>
</g>
<!-- main&#45;&gt;Player_create -->
<g id="edge35" class="edge">
<title>main&#45;&gt;Player_create</title>
<path fill="none" stroke="black" d="M1497.15,-406.47C1594.95,-404.52 1917.24,-396.99 1961.09,-382 1976.91,-376.59 1992.39,-366.41 2004.67,-356.81"/>
<polygon fill="black" stroke="black" points="2007.08,-359.36 2012.62,-350.33 2002.66,-353.94 2007.08,-359.36"/>
</g>
<!-- main&#45;&gt;Player_destroy -->
<g id="edge45" class="edge">
<title>main&#45;&gt;Player_destroy</title>
<path fill="none" stroke="black" d="M1497.23,-406.83C1670.61,-405.75 2588.49,-399.22 2645.09,-382 2662.32,-376.76 2679.4,-366.35 2692.9,-356.56"/>
<polygon fill="black" stroke="black" points="2695.34,-359.1 2701.21,-350.28 2691.12,-353.51 2695.34,-359.1"/>
</g>
<!-- main&#45;&gt;Player_printMoney -->
<g id="edge39" class="edge">
<title>main&#45;&gt;Player_printMoney</title>
<path fill="none" stroke="black" d="M1497.1,-407.08C1649.07,-407.38 2371.25,-407.48 2467.09,-382 2487.42,-376.6 2508.21,-365.74 2524.59,-355.71"/>
<polygon fill="black" stroke="black" points="2526.61,-358.57 2533.2,-350.27 2522.87,-352.65 2526.61,-358.57"/>
</g>
<!-- main&#45;&gt;Player_queryBet -->
<g id="edge40" class="edge">
<title>main&#45;&gt;Player_queryBet</title>
<path fill="none" stroke="black" d="M1497.17,-406.7C1611.8,-405.39 2041.01,-399.34 2099.09,-382 2117.21,-376.59 2135.45,-366.13 2149.92,-356.35"/>
<polygon fill="black" stroke="black" points="2152.23,-359.01 2158.41,-350.4 2148.21,-353.27 2152.23,-359.01"/>
</g>
<!-- main&#45;&gt;Player_printHandLarge -->
<g id="edge41" class="edge">
<title>main&#45;&gt;Player_printHandLarge</title>
<path fill="none" stroke="black" d="M1497.29,-406.77C1629.41,-405.62 2183.89,-399.77 2259.09,-382 2282.54,-376.46 2307.09,-365.41 2326.45,-355.31"/>
<polygon fill="black" stroke="black" points="2328.35,-358.26 2335.51,-350.45 2325.04,-352.09 2328.35,-358.26"/>
</g>
<!-- main&#45;&gt;Player_queryAndReplaceCards -->
<g id="edge42" class="edge">
<title>main&#45;&gt;Player_queryAndReplaceCards</title>
<path fill="none" stroke="black" d="M1497.08,-405.77C1539.04,-403.48 1620.54,-397.32 1688.09,-382 1718.8,-375.03 1752.19,-363.64 1778.54,-353.69"/>
<polygon fill="black" stroke="black" points="1779.83,-356.95 1787.92,-350.11 1777.33,-350.41 1779.83,-356.95"/>
</g>
<!-- main&#45;&gt;Player_updateMoneyAndPrint -->
<g id="edge43" class="edge">
<title>main&#45;&gt;Player_updateMoneyAndPrint</title>
<path fill="none" stroke="black" d="M1497.26,-407.1C1690.11,-407.72 2812.25,-410.08 2961.09,-382 2990.53,-376.45 3022.07,-364.82 3046.59,-354.4"/>
<polygon fill="black" stroke="black" points="3048.19,-357.53 3055.97,-350.34 3045.4,-351.11 3048.19,-357.53"/>
</g>
</g>
</svg>
